<svg viewBox="0 0 718 163" xmlns="http://www.w3.org/2000/svg">
  <g id="ADDL"fill="none" fill-rule="nonzero">
    <path id="ADDL-SUB" d="M11.7 147c-.7-1-2-1.5-3.4-1.5-1.6 0-3.2.7-3.2 2.5 0 3.9 9.1 1.7 9.1 8.5 0 4.1-3.3 6.1-7 6.1-2.4 0-4.7-.7-6.3-2.6l2.6-2.5c.8 1.3 2.3 2 3.8 2 1.6 0 3.4-.9 3.4-2.6 0-4.2-9.1-1.8-9.1-8.7 0-4 3.5-5.8 7.1-5.8 2 0 4 .6 5.5 2l-2.5 2.6zm15.4-4.6c6-.1 10.2 3.9 10.2 10.1 0 6-4.2 10-10.2 10.1-5.9 0-10.2-4-10.2-10 0-6.2 4.3-10.2 10.2-10.2zm0 17.1c4 0 6.6-3 6.6-7.1 0-3.8-2.6-6.9-6.6-6.9-4 0-6.6 3-6.6 6.9 0 4.1 2.7 7.1 6.6 7.1zm13.9-16.6h12.4v3.1h-9v5.1h8.5v3.1h-8.5v8h-3.4v-19.3zm20.4 3.1h-5.9v-3.1h15.2v3.1h-5.9v16.1h-3.4v-16.1zm16.9 10.8h-6.7v-2.8h6.7v2.8zm24.8.8l4.2 4.5h-4.2l-2-2.2c-1.5 1.8-3.2 2.7-5.7 2.7-3.4 0-6.5-2-6.5-5.6 0-2.6 1.8-4.5 4.2-5.4-1.2-1.4-2.2-2.5-2.2-4.4 0-3.2 2.6-4.7 5.5-4.7s5.4 1.4 5.4 4.6c0 2.4-1.9 4-3.8 5l3.1 3.3 2.1-3.3h3.8l-3.9 5.5zm-8.1-4.1c-1.3.8-2.6 1.6-2.6 3.3 0 1.7 1.4 2.9 3 2.9 1.5 0 2.6-1 3.5-1.9l-3.9-4.3zm-1-6.2c0 1 1 2 1.8 2.8 1.1-.6 2.6-1.5 2.6-2.9 0-1-1-1.8-2.1-1.8-1.2-.1-2.3.7-2.3 1.9zm24.9-4.4h3.4v7.7h9v-7.7h3.4v19.2h-3.4v-8.5h-9v8.5h-3.4v-19.2zm26.8 0h3l8.3 19.2h-4l-1.8-4.4h-8.3l-1.7 4.4h-3.8l8.3-19.2zm4.3 11.9l-3-7.8-3 7.8h6zm9.5-11.9h6.7c3.7 0 7.2 1.2 7.2 5.5 0 2.8-1.6 4.8-4.5 5.2l5.1 8.5h-4.1l-4.5-8.1h-2.4v8.1h-3.4v-19.2h-.1zm6.1 8.1c1.9 0 4.2-.2 4.2-2.7 0-2.3-2.1-2.6-3.9-2.6h-3v5.2h2.7v.1zm11.5-8.1h7.6c5.1 0 9.8 3.1 9.8 9.6 0 6.6-5.6 9.6-10.2 9.6h-7.2v-19.2zm6 16.1c4.3 0 7.8-1.8 7.8-6.5s-3-6.5-7.2-6.5h-3.1v13h2.5zm12.3-16.1h3.7l3.6 13.9h.1l4.3-13.9h3.4l4.2 13.9h.1l3.8-13.9h3.5l-5.6 19.2h-3.3l-4.5-14.6h-.1l-4.5 14.6h-3.2l-5.5-19.2zm34.1 0h3l8.3 19.2h-3.9l-1.8-4.4h-8.3l-1.7 4.4h-3.8l8.2-19.2zm4.4 11.9l-3-7.8-3 7.8h6zm9.5-11.9h6.7c3.7 0 7.2 1.2 7.2 5.5 0 2.8-1.6 4.8-4.5 5.2l5.1 8.5h-4.1l-4.5-8.1h-2.5v8.1h-3.4v-19.2zm6.1 8.1c1.9 0 4.2-.2 4.2-2.7 0-2.3-2.1-2.6-3.9-2.6h-3v5.2h2.7v.1zm11.4-8.1h12.7v3.1h-9.3v4.7h8.8v3.1h-8.8v5.2h9.8v3.1h-13.2v-19.2zm25.7 0h12.4v3.1h-9v5.1h8.5v3.1h-8.5v8h-3.4v-19.3zm31 12.2c0 4.6-3.3 7.6-7.7 7.6s-7.7-2.9-7.7-7.6v-12.2h3.4v12.1c0 1.9 1 4.4 4.3 4.4s4.3-2.5 4.3-4.4v-12.1h3.4v12.2zm-10.6-17.4c1.2 0 2.1.8 2.1 2 0 1.1-.9 2-2.1 2-1.2 0-2.1-.9-2.1-2s.9-2 2.1-2zm5.6 0c1.2 0 2.1.8 2.1 2 0 1.1-.9 2-2.1 2-1.2 0-2.1-.9-2.1-2s.9-2 2.1-2zm9.5 5.2h6.7c3.7 0 7.2 1.2 7.2 5.5 0 2.8-1.6 4.8-4.5 5.2l5.1 8.5h-4.1l-4.5-8.1h-2.5v8.1h-3.4v-19.2zm6.1 8.1c1.9 0 4.2-.2 4.2-2.7 0-2.3-2.1-2.6-3.9-2.6h-3v5.2h2.7v.1zm24.1-5h-5.9v-3.1h15.2v3.1h-5.9v16.1h-3.4v-16.1zm12-3.1h12.7v3.1h-9.3v4.7h8.8v3.1h-8.8v5.2h9.8v3.1h-13.2v-19.2zm29.8 4.5c-1.4-1.5-2.7-1.9-4-1.9-4 0-6.6 3-6.6 6.9 0 4.1 2.6 7.1 6.6 7.1 1.5 0 3-.7 4.3-2.3l2.8 2c-1.7 2.4-4.3 3.4-7.2 3.4-5.9 0-10.2-4-10.2-10 0-6.2 4.2-10.2 10.2-10.2 2.6 0 4.8.8 6.7 3l-2.6 2zm5.8-4.5h3.4v7.7h9v-7.7h3.4v19.2h-3.4v-8.5h-9v8.5h-3.4v-19.2zm20.5 0h4.5l9.3 14.3h.1v-14.3h3.4v19.2h-4.3l-9.5-14.7h-.1v14.7h-3.4v-19.2zm21.9 0h3.4v19.2h-3.4v-19.2zm8 0h3.4v8.1h.2l8-8.1h4.6l-9 8.9 9.6 10.3h-4.8l-8.3-9.5h-.2v9.5h-3.4v-19.2h-.1zm41.2 14.7l4.2 4.5h-4.2l-2-2.2c-1.5 1.8-3.2 2.7-5.7 2.7-3.4 0-6.5-2-6.5-5.6 0-2.6 1.8-4.5 4.2-5.4-1.2-1.4-2.2-2.5-2.2-4.4 0-3.2 2.6-4.7 5.5-4.7s5.4 1.4 5.4 4.6c0 2.4-1.9 4-3.8 5l3.1 3.3 2.1-3.3h3.8l-3.9 5.5zm-8.1-4.1c-1.3.8-2.6 1.6-2.6 3.3 0 1.7 1.4 2.9 3 2.9 1.5 0 2.6-1 3.5-1.9l-3.9-4.3zm-1-6.2c0 1 1 2 1.8 2.8 1.1-.6 2.6-1.5 2.6-2.9 0-1-1-1.8-2.1-1.8-1.2-.1-2.3.7-2.3 1.9zm22.7-4.4h3.7l3.6 13.9h.1l4.3-13.9h3.4l4.2 13.9h.1l3.8-13.9h3.5l-5.6 19.2h-3.3l-4.5-14.6h-.1l-4.5 14.6h-3.2l-5.5-19.2zm29.3 0h3.4v19.2h-3.4v-19.2zm17.3 4.1c-.7-1-2-1.5-3.4-1.5-1.6 0-3.2.7-3.2 2.5 0 3.9 9.1 1.7 9.1 8.5 0 4.1-3.3 6.1-7 6.1-2.4 0-4.7-.7-6.3-2.6l2.6-2.5c.8 1.3 2.3 2 3.8 2 1.6 0 3.4-.9 3.4-2.6 0-4.2-9.1-1.8-9.1-8.7 0-4 3.5-5.8 7.1-5.8 2 0 4 .6 5.5 2l-2.5 2.6zm15.6 0c-.7-1-2-1.5-3.4-1.5-1.6 0-3.2.7-3.2 2.5 0 3.9 9.1 1.7 9.1 8.5 0 4.1-3.3 6.1-7 6.1-2.4 0-4.7-.7-6.3-2.6l2.6-2.5c.8 1.3 2.3 2 3.8 2 1.6 0 3.4-.9 3.4-2.6 0-4.2-9.1-1.8-9.1-8.7 0-4 3.5-5.8 7.1-5.8 2 0 4 .6 5.5 2l-2.5 2.6zm6.3-4.1h12.7v3.1h-9.3v4.7h8.8v3.1h-8.8v5.2h9.8v3.1h-13.2v-19.2zm17 0h4.5l9.3 14.3h.1v-14.3h3.4v19.2h-4.3l-9.5-14.7h-.1v14.7h-3.4v-19.2zm31.3 4.1c-.7-1-2-1.5-3.4-1.5-1.6 0-3.2.7-3.2 2.5 0 3.9 9.1 1.7 9.1 8.5 0 4.1-3.3 6.1-7 6.1-2.4 0-4.7-.7-6.3-2.6l2.6-2.5c.8 1.3 2.3 2 3.8 2 1.6 0 3.4-.9 3.4-2.6 0-4.2-9.1-1.8-9.1-8.7 0-4 3.5-5.8 7.1-5.8 2 0 4 .6 5.5 2l-2.5 2.6zm19.4.4c-1.4-1.5-2.7-1.9-4-1.9-4 0-6.6 3-6.6 6.9 0 4.1 2.6 7.1 6.6 7.1 1.5 0 3-.7 4.3-2.3l2.8 2c-1.7 2.4-4.3 3.4-7.2 3.4-5.9 0-10.2-4-10.2-10 0-6.2 4.2-10.2 10.2-10.2 2.6 0 4.8.8 6.7 3l-2.6 2zm5.8-4.5h3.4v7.7h9v-7.7h3.4v19.2h-3.4v-8.5h-9v8.5h-3.4v-19.2zm26.8 0h3l8.3 19.2h-3.9l-1.8-4.4h-8.3l-1.7 4.4h-3.8l8.2-19.2zm4.3 11.9l-3-7.8-3 7.8h6zm9.5-11.9h12.4v3.1h-9v5.1h8.5v3.1h-8.5v8h-3.4v-19.3zm20.5 3.1h-5.9v-3.1h15.2v3.1h-5.9v16.1h-3.4v-16.1z" fill="#FFFFFF"/>
    <g id="ADDL-SIGNET">
      <polygon class="D" fill="#FFFFFF" points="0.5 118 157.3 118 169.2 96.3 12.4 96.3"></polygon>
      <polygon class="C" fill="#FFFFFF" points="18 85.9 174.8 85.9 186.6 64.2 29.8 64.2"></polygon>
      <polygon class="B" fill="#FFFFFF" points="35.4 53.8 192.2 53.8 204.1 32.1 47.3 32.1"></polygon>
      <polygon class="A" fill="#FFFFFF" points="52.9 21.7 209.7 21.7 221.6 0 64.8 0"></polygon>
    </g>
    <g  id="ADDL-TEXT" fill="#FFFFFF">
      <path d="M277 118.2v-53.7h49.4c14.9 0 22.6 4.5 22.6 18.4v16.9c0 13.1-6.8 18.4-22.6 18.4h-49.4zm46.4-11.8c9 0 11.1-4.1 11.1-11v-8.6c0-8.3-3.4-11-11.1-11h-31.2v30.5h31.2v.1zm39.7 11.8v-53.7h49.4c14.9 0 22.6 4.5 22.6 18.4v16.9c0 13.1-6.8 18.4-22.6 18.4h-49.4zm46.4-11.8c9 0 11.1-4.1 11.1-11v-8.6c0-8.3-3.4-11-11.1-11h-31.2v30.5h31.2v.1zM449 118.2h15.1v-53.7h-15.1zM474.4 75.9h24v42.3h15.1v-42.3h24v-11.4h-63.1zM547.8 118.2h15.2v-53.7h-15.2zM600.6 118.2h20l28.8-53.7h-16.7l-22.1 42.2-22-42.2h-16.8zM658 118.2h60v-11.4h-44.8v-10.9h41.5v-10.1h-41.5v-10.3h43.8v-11h-59zM212.5 108.4l-5.2 9.8h-16.8l29.1-53.7h21.1l29.5 53.7h-16.8l-5.2-9.8h-35.7zm30.3-10.5l-12.5-23.5-12.3 23.5h24.8z"/>
    </g>
  </g>
</svg>