<?xml version="1.0" encoding="UTF-8"?>
<svg width="85px" height="85px" viewBox="0 0 85 85" version="1.1" xmlns="http://www.w3.org/2000/svg" xmlns:xlink="http://www.w3.org/1999/xlink">
    <!-- Generator: Sketch 50.2 (55047) - http://www.bohemiancoding.com/sketch -->
    <title>iT-Service Signet</title>
    <desc>Created with Sketch.</desc>
    <defs></defs>
    <g id="iT-Service-Signet" stroke="none" stroke-width="1" fill="none" fill-rule="evenodd">
        <path d="M49.336,81.784 C49.336,83.343 48.061,84.618 46.501,84.618 L37.997,84.618 C36.438,84.618 35.162,83.343 35.162,81.784 L35.162,73.279 C35.162,71.72 36.438,70.445 37.997,70.445 L46.501,70.445 C48.061,70.445 49.336,71.72 49.336,73.279 L49.336,81.784" id="Fill-19" fill="#174489"></path>
        <path d="M49.137,12.134 C49.137,13.693 47.861,14.968 46.302,14.968 L37.798,14.968 C36.238,14.968 34.963,13.693 34.963,12.134 L34.963,3.629 C34.963,2.07 36.238,0.795 37.798,0.795 L46.302,0.795 C47.861,0.795 49.137,2.07 49.137,3.629 L49.137,12.134" id="Fill-20" fill="#174489"></path>
        <path d="M76.896,19.134 C76.896,20.693 75.621,21.968 74.062,21.968 L65.558,21.968 C63.998,21.968 62.723,20.693 62.723,19.134 L62.723,10.629 C62.723,9.07 63.998,7.795 65.558,7.795 L74.062,7.795 C75.621,7.795 76.896,9.07 76.896,10.629 L76.896,19.134" id="Fill-21" fill="#174489"></path>
        <path d="M76.896,74.693 C76.896,76.252 75.621,77.528 74.062,77.528 L65.558,77.528 C63.998,77.528 62.723,76.252 62.723,74.693 L62.723,66.189 C62.723,64.63 63.998,63.354 65.558,63.354 L74.062,63.354 C75.621,63.354 76.896,64.63 76.896,66.189 L76.896,74.693" id="Fill-22" fill="#174489"></path>
        <path d="M84.197,46.421 C84.197,47.98 82.922,49.255 81.362,49.255 L72.858,49.255 C71.299,49.255 70.023,47.98 70.023,46.421 L70.023,37.917 C70.023,36.357 71.299,35.082 72.858,35.082 L81.362,35.082 C82.922,35.082 84.197,36.357 84.197,37.917 L84.197,46.421" id="Fill-23" fill="#174489"></path>
        <path d="M14.394,46.421 C14.394,47.98 13.118,49.255 11.559,49.255 L3.055,49.255 C1.495,49.255 0.22,47.98 0.22,46.421 L0.22,37.917 C0.22,36.357 1.495,35.082 3.055,35.082 L11.559,35.082 C13.118,35.082 14.394,36.357 14.394,37.917 L14.394,46.421" id="Fill-24" fill="#174489"></path>
        <path d="M21.279,19.134 C21.279,20.693 20.004,21.968 18.444,21.968 L9.94,21.968 C8.381,21.968 7.105,20.693 7.105,19.134 L7.105,10.629 C7.105,9.07 8.381,7.795 9.94,7.795 L18.444,7.795 C20.004,7.795 21.279,9.07 21.279,10.629 L21.279,19.134" id="Fill-25" fill="#174489"></path>
        <path d="M21.279,75.047 C21.279,76.606 20.004,77.882 18.444,77.882 L9.94,77.882 C8.381,77.882 7.105,76.606 7.105,75.047 L7.105,65.835 C7.105,64.276 8.381,63 9.94,63 L18.444,63 C20.004,63 21.279,64.276 21.279,65.835 L21.279,75.047" id="Fill-26" fill="#174489"></path>
        <path d="M11.715,42.945 L26.254,42.945" id="Fill-27" fill="#174489"></path>
        <path d="M11.715,42.945 L26.254,42.945 M42.185,8.737 L42.185,26.314 M8.563,9.245 L27.303,27.898 M75.94,8.737 L57.065,27.468" id="Stroke-28" stroke="#174489" stroke-width="2"></path>
        <path d="M46.504,35.082 L38,35.082 C36.44,35.082 35.165,36.357 35.165,37.917 L35.165,46.421 C35.165,47.98 36.44,49.255 38,49.255 L46.504,49.255 C48.063,49.255 49.339,47.98 49.339,46.421 L49.339,37.917 C49.339,36.357 48.063,35.082 46.504,35.082" id="Fill-29" fill="#174489"></path>
        <path d="M54.23,25.643 L30.138,25.643 C27.472,25.643 25.303,27.812 25.303,30.477 L25.303,54.572 C25.303,57.237 27.472,59.406 30.138,59.406 L54.23,59.406 C56.896,59.406 59.065,57.237 59.065,54.572 L59.065,30.477 C59.065,27.812 56.896,25.643 54.23,25.643 Z M54.23,27.643 C55.79,27.643 57.065,28.918 57.065,30.477 L57.065,54.572 C57.065,56.131 55.79,57.406 54.23,57.406 L30.138,57.406 C28.578,57.406 27.303,56.131 27.303,54.572 L27.303,30.477 C27.303,28.918 28.578,27.643 30.138,27.643 L54.23,27.643 Z" id="Fill-30" fill="#174489"></path>
        <path d="M26.896,57.406 L8.563,75.6 M57.065,57.523 L75.94,76.31 M42.185,58.409 L42.185,76.31" id="Stroke-31" stroke="#174489" stroke-width="2"></path>
        <path d="M58.002,42.945 L76.337,42.945" id="Fill-32" fill="#174489"></path>
        <path d="M58.002,42.945 L76.337,42.945" id="Stroke-33" stroke="#174489" stroke-width="2"></path>
    </g>
</svg>