<?xml version="1.0" encoding="UTF-8"?>
<svg width="812px" height="481px" viewBox="0 0 812 481" version="1.1" xmlns="http://www.w3.org/2000/svg" xmlns:xlink="http://www.w3.org/1999/xlink">
    <!-- Generator: Sketch 50.2 (55047) - http://www.bohemiancoding.com/sketch -->
    <title>Shade Layers Pattern Software</title>
    <desc>Created with Sketch.</desc>
    <defs></defs>
    <g id="Shade-Layers-Pattern-Software" stroke="none" stroke-width="1" fill="none" fill-rule="evenodd">
        <g id="idde-background" transform="translate(405.938115, 240.324462) rotate(4.000000) translate(-405.938115, -240.324462) translate(13.938115, 26.824462)" fill-rule="nonzero">
            <path d="M24.1075088,130.856308 C-14.1140558,212.962749 -6.88590125,264.439566 45.7879759,285.286759 C124.80079,316.557548 312.676857,329.065598 391.208771,396.900118 C469.738021,464.733309 709.184959,412.293413 750.136064,295.869981 C791.08717,179.44655 864.819408,2.84217094e-14 476.021693,2.84217094e-14 C216.820552,2.84217094e-14 66.1855988,43.6178826 24.1088409,130.856308 L24.1075088,130.856308 Z" id="Shape" fill="#E8E9EA"></path>
            <path d="M45.6622882,125.194932 C9.73206748,202.494204 16.5269015,250.957156 66.0430334,270.583787 C140.31911,300.023734 316.932199,311.799462 390.756204,375.662406 C464.577706,439.524098 689.670044,390.154455 728.166173,280.547383 C766.662301,170.940312 835.974367,2 470.484678,2 C226.822381,2 85.2178396,43.0641424 45.6635405,125.194932 L45.6622882,125.194932 Z" id="Shape" fill="#D2D3D5"></path>
            <path d="M67.2170677,120.227101 C33.5781907,192.526917 39.9397043,237.855449 86.298091,256.212696 C155.83743,283.748567 321.18754,294.762681 390.303638,354.495186 C459.417391,414.22652 670.15513,368.049938 706.196281,265.531881 C742.237433,163.013824 807.129326,5 464.947663,5 C236.82421,5 104.250081,43.4082526 67.2182401,120.227101 L67.2170677,120.227101 Z" id="Shape" fill="#BBBEC0"></path>
            <path d="M87.7718471,114.259269 C56.424314,181.55963 62.352507,223.753742 105.553149,240.841606 C170.35575,266.4734 324.442882,276.7259 388.851071,332.327966 C453.257076,387.928941 649.640215,344.945421 683.22639,249.516378 C716.812564,154.087336 777.284285,7 458.410649,7 C245.826039,7 122.282321,42.7523628 87.7729397,114.259269 L87.7718471,114.259269 Z" id="Shape" fill="#A5A8AB"></path>
            <path d="M109.326627,109.597893 C80.2704372,172.091085 85.7653098,211.271332 125.808206,227.138634 C185.87407,250.939586 328.698223,260.459764 388.398505,312.090254 C448.096761,363.719731 630.125301,323.806462 661.256498,235.19378 C692.387695,146.581098 748.439244,10 452.873634,10 C255.827868,10 141.314562,43.1986226 109.327639,109.597893 L109.326627,109.597893 Z" id="Shape" fill="#8E9296"></path>
            <path d="M130.881406,103.630061 C104.11656,161.123798 109.178113,197.169626 146.063264,211.767543 C201.39239,233.664419 332.953565,242.422983 387.945938,289.923034 C442.936446,337.422153 610.610386,300.701945 639.286606,219.178277 C667.962827,137.65461 719.594203,12 447.336619,12 C265.829698,12 160.346803,42.5427328 130.882339,103.630061 L130.881406,103.630061 Z" id="Shape" fill="#777C81"></path>
            <path d="M151.436185,98.968685 C126.962684,151.655253 131.590915,184.687216 165.318321,198.064571 C215.91071,218.130605 336.208906,226.156847 386.493371,269.685322 C436.776131,313.212943 590.095471,279.562986 616.316715,204.855679 C642.537958,130.148372 689.749162,15 440.799604,15 C274.831527,15 178.379044,42.9889926 151.437038,98.968685 L151.436185,98.968685 Z" id="Shape" fill="#61666C"></path>
            <path d="M172.990965,93.0008536 C150.808807,140.687967 155.003718,170.585509 185.573379,182.69348 C231.42903,200.855438 340.464248,208.120066 386.040805,247.518102 C431.615816,286.915364 570.580557,256.458469 594.346823,188.840177 C618.11309,121.221884 660.904121,17 435.26259,17 C284.833356,17 197.411285,42.3331028 172.991738,93.0008536 L172.990965,93.0008536 Z" id="Shape" fill="#4A5157"></path>
            <path d="M194.545744,88.0330221 C174.65493,130.72068 178.416521,157.483802 205.828436,168.32239 C246.94735,184.580271 344.719589,191.083285 385.588238,226.350881 C426.455501,261.617786 551.065642,234.353953 572.376931,173.824674 C593.688221,113.295396 632.05908,20 429.725575,20 C294.835185,20 216.443526,42.677213 194.546438,88.0330221 L194.545744,88.0330221 Z" id="Shape" fill="#343B42"></path>
            <path d="M215.100524,82.3716458 C197.501053,120.252135 200.829324,144.001392 225.083494,153.619418 C261.46567,168.046457 347.97493,173.817149 384.135671,205.113169 C420.295186,236.408576 530.550727,212.214994 549.40704,158.502076 C568.263352,104.789158 602.214039,22 423.18856,22 C303.837014,22 234.475767,42.1234728 215.101137,82.3716458 L215.100524,82.3716458 Z" id="Shape" fill="#1D252D"></path>
        </g>
    </g>
</svg>