<svg width="812" height="481" viewBox="0 0 812 481" xmlns="http://www.w3.org/2000/svg"><title>Shade Layers Pattern Academy</title><desc>Created with Sketch.</desc><g fill-rule="nonzero" fill="none"><path d="M44.566 132.093c-43.893 79.267-40.282 131.147 10.827 155.639 76.666 36.739 263.291 62.374 336.917 135.57 73.624 73.195 316.263 37.621 365.282-75.703 49.019-113.324 135.165-287.25-252.855-314.466-258.683-18.144-412.07 14.842-460.169 98.961h-.001z" id="Shape" fill="#FDF2E6"/><path d="M66.474 127.952c-41.269 74.63-37.88 123.471 10.163 146.525 72.067 34.58 247.502 58.695 316.708 127.598 69.204 68.901 297.302 35.387 343.393-71.306 46.092-106.693 127.091-270.444-237.668-296.028-243.175-17.056-387.371 14.013-432.595 93.211h-.001z" id="Shape" fill="#FCE5CC"/><path d="M88.334 124.503c-38.633 69.8-35.457 115.484 9.524 137.049 67.473 32.349 231.721 54.915 296.518 119.366 64.794 64.45 278.343 33.117 321.488-66.673 43.145-99.79 118.968-252.946-222.529-276.898-227.667-15.969-362.665 13.083-405 87.156h-.001z" id="Shape" fill="#FAD9B3"/><path d="M109.265 119.986c-35.996 64.971-33.033 107.496 8.885 127.574 62.879 30.117 215.94 51.135 276.327 111.134 60.385 59.998 259.384 30.847 299.583-62.04 40.199-92.887 110.846-235.447-207.39-257.768-212.159-14.881-337.959 12.152-377.405 81.1h-.001z" id="Shape" fill="#F8CC99"/><path d="M131.103 116.843c-33.373 60.334-30.631 99.821 8.221 118.459 58.28 27.958 200.152 47.457 256.119 103.163 55.965 55.705 240.423 28.614 277.695-57.643 37.272-86.256 102.772-218.641-192.203-239.33-196.652-13.793-313.26 11.323-349.831 75.35h-.001z" id="Shape" fill="#F7BF80"/><path d="M153.033 112.395c-30.736 55.505-28.208 91.833 7.582 108.984 53.686 25.726 184.371 43.676 235.928 94.931 51.556 51.253 221.465 26.344 255.79-53.009 34.326-79.353 94.649-201.142-177.064-220.2-181.144-12.705-288.554 10.392-322.235 69.295h-.001z" id="Shape" fill="#F5B267"/><path d="M173.873 109.182c-28.113 50.868-25.806 84.158 6.918 99.869 49.087 23.567 168.582 39.998 215.719 86.96 47.135 46.96 202.503 24.11 233.902-48.612 31.398-72.722 86.575-184.336-161.876-201.762-165.636-11.618-263.855 9.564-294.662 63.545h-.001z" id="Shape" fill="#F3A54D"/><path d="M195.802 104.735c-25.476 46.039-23.382 76.17 6.279 90.394 44.493 21.336 152.801 36.218 195.529 78.728 42.726 42.509 183.545 21.84 211.997-43.979 28.452-65.819 78.453-166.837-146.737-182.632-150.128-10.53-239.149 8.633-267.066 57.49h-.001z" id="Shape" fill="#F19934"/><path d="M217.661 101.286c-22.839 41.21-20.959 68.183 5.64 80.919 39.899 19.104 137.02 32.438 175.338 70.496 38.317 38.057 164.586 19.57 190.092-39.346s70.331-149.339-131.598-163.503c-134.621-9.442-214.443 7.702-239.471 51.434h-.001z" id="Shape" fill="#F08C1A"/><path d="M238.571 97.075c-20.216 36.573-18.557 60.508 4.976 71.804 35.3 16.945 121.232 28.76 155.13 62.524 33.897 33.764 145.625 17.337 168.204-34.949 22.579-52.286 62.257-132.533-116.411-145.064-119.113-8.355-189.744 6.873-211.897 45.685h-.001z" fill="#EE7F01"/></g></svg>